<svg width="244" height="32" viewBox="0 0 244 32" fill="none" xmlns="http://www.w3.org/2000/svg">
<path d="M58.854 8.556V24H55.092V14.738L51.638 24H48.602L45.126 14.716V24H41.364V8.556H45.808L50.142 19.248L54.432 8.556H58.854ZM70.1833 24.154C68.7313 24.154 67.3966 23.8167 66.1793 23.142C64.9766 22.4673 64.016 21.5287 63.2973 20.326C62.5933 19.1087 62.2413 17.7447 62.2413 16.234C62.2413 14.7233 62.5933 13.3667 63.2973 12.164C64.016 10.9613 64.9766 10.0227 66.1793 9.348C67.3966 8.67333 68.7313 8.336 70.1833 8.336C71.6353 8.336 72.9626 8.67333 74.1653 9.348C75.3826 10.0227 76.336 10.9613 77.0253 12.164C77.7293 13.3667 78.0813 14.7233 78.0813 16.234C78.0813 17.7447 77.7293 19.1087 77.0253 20.326C76.3213 21.5287 75.368 22.4673 74.1653 23.142C72.9626 23.8167 71.6353 24.154 70.1833 24.154ZM70.1833 20.722C71.4153 20.722 72.398 20.3113 73.1313 19.49C73.8793 18.6687 74.2533 17.5833 74.2533 16.234C74.2533 14.87 73.8793 13.7847 73.1313 12.978C72.398 12.1567 71.4153 11.746 70.1833 11.746C68.9366 11.746 67.9393 12.1493 67.1913 12.956C66.458 13.7627 66.0913 14.8553 66.0913 16.234C66.0913 17.598 66.458 18.6907 67.1913 19.512C67.9393 20.3187 68.9366 20.722 70.1833 20.722ZM95.9922 8.556L90.5142 24H85.8062L80.3282 8.556H84.3322L88.1602 20.216L92.0102 8.556H95.9922ZM102.647 8.556V24H98.8845V8.556H102.647ZM110.455 11.57V14.694H115.493V17.598H110.455V20.986H116.153V24H106.693V8.556H116.153V11.57H110.455ZM129.659 11.57V14.694H134.697V17.598H129.659V20.986H135.357V24H125.897V8.556H135.357V11.57H129.659ZM148.58 24L145.434 19.27L142.662 24H138.394L143.344 16.146L138.284 8.556H142.662L145.764 13.22L148.492 8.556H152.76L147.854 16.344L152.958 24H148.58ZM167.936 13.528C167.936 14.4227 167.731 15.244 167.32 15.992C166.91 16.7253 166.279 17.3193 165.428 17.774C164.578 18.2287 163.522 18.456 162.26 18.456H159.928V24H156.166V8.556H162.26C163.492 8.556 164.534 8.76867 165.384 9.194C166.235 9.61933 166.873 10.206 167.298 10.954C167.724 11.702 167.936 12.56 167.936 13.528ZM161.974 15.464C162.693 15.464 163.228 15.2953 163.58 14.958C163.932 14.6207 164.108 14.144 164.108 13.528C164.108 12.912 163.932 12.4353 163.58 12.098C163.228 11.7607 162.693 11.592 161.974 11.592H159.928V15.464H161.974ZM174.977 21.096H179.905V24H171.215V8.556H174.977V21.096ZM190.323 24.154C188.871 24.154 187.536 23.8167 186.319 23.142C185.116 22.4673 184.156 21.5287 183.437 20.326C182.733 19.1087 182.381 17.7447 182.381 16.234C182.381 14.7233 182.733 13.3667 183.437 12.164C184.156 10.9613 185.116 10.0227 186.319 9.348C187.536 8.67333 188.871 8.336 190.323 8.336C191.775 8.336 193.102 8.67333 194.305 9.348C195.522 10.0227 196.476 10.9613 197.165 12.164C197.869 13.3667 198.221 14.7233 198.221 16.234C198.221 17.7447 197.869 19.1087 197.165 20.326C196.461 21.5287 195.508 22.4673 194.305 23.142C193.102 23.8167 191.775 24.154 190.323 24.154ZM190.323 20.722C191.555 20.722 192.538 20.3113 193.271 19.49C194.019 18.6687 194.393 17.5833 194.393 16.234C194.393 14.87 194.019 13.7847 193.271 12.978C192.538 12.1567 191.555 11.746 190.323 11.746C189.076 11.746 188.079 12.1493 187.331 12.956C186.598 13.7627 186.231 14.8553 186.231 16.234C186.231 17.598 186.598 18.6907 187.331 19.512C188.079 20.3187 189.076 20.722 190.323 20.722ZM209.51 24L206.298 18.17H205.396V24H201.634V8.556H207.948C209.165 8.556 210.199 8.76867 211.05 9.194C211.915 9.61933 212.561 10.206 212.986 10.954C213.411 11.6873 213.624 12.5087 213.624 13.418C213.624 14.4447 213.331 15.3613 212.744 16.168C212.172 16.9747 211.321 17.5467 210.192 17.884L213.756 24H209.51ZM205.396 15.508H207.728C208.417 15.508 208.931 15.3393 209.268 15.002C209.62 14.6647 209.796 14.188 209.796 13.572C209.796 12.9853 209.62 12.5233 209.268 12.186C208.931 11.8487 208.417 11.68 207.728 11.68H205.396V15.508ZM221.068 11.57V14.694H226.106V17.598H221.068V20.986H226.766V24H217.306V8.556H226.766V11.57H221.068ZM238.404 24L235.192 18.17H234.29V24H230.528V8.556H236.842C238.059 8.556 239.093 8.76867 239.944 9.194C240.809 9.61933 241.455 10.206 241.88 10.954C242.305 11.6873 242.518 12.5087 242.518 13.418C242.518 14.4447 242.225 15.3613 241.638 16.168C241.066 16.9747 240.215 17.5467 239.086 17.884L242.65 24H238.404ZM234.29 15.508H236.622C237.311 15.508 237.825 15.3393 238.162 15.002C238.514 14.6647 238.69 14.188 238.69 13.572C238.69 12.9853 238.514 12.5233 238.162 12.186C237.825 11.8487 237.311 11.68 236.622 11.68H234.29V15.508Z" fill="white"/>
<path d="M24 10.6666H25.3333C26.7478 10.6666 28.1044 11.2285 29.1046 12.2287C30.1048 13.2289 30.6667 14.5855 30.6667 16C30.6667 17.4144 30.1048 18.771 29.1046 19.7712C28.1044 20.7714 26.7478 21.3333 25.3333 21.3333H24" stroke="white" stroke-width="2" stroke-linecap="round" stroke-linejoin="round"/>
<path d="M2.66669 10.6666H24V22.6666C24 24.0811 23.4381 25.4377 22.4379 26.4379C21.4377 27.4381 20.0812 28 18.6667 28H8.00002C6.58553 28 5.22898 27.4381 4.22878 26.4379C3.22859 25.4377 2.66669 24.0811 2.66669 22.6666V10.6666Z" fill="white" stroke="white" stroke-width="2" stroke-linecap="round" stroke-linejoin="round"/>
<path d="M8 1.33337V5.33337" stroke="white" stroke-width="2" stroke-linecap="round" stroke-linejoin="round"/>
<path d="M13.3333 1.33337V5.33337" stroke="#7900C2" stroke-width="2" stroke-linecap="round" stroke-linejoin="round"/>
<path d="M18.6667 1.33337V5.33337" stroke="white" stroke-width="2" stroke-linecap="round" stroke-linejoin="round"/>
</svg>
